<svg xmlns="http://www.w3.org/2000/svg" xmlns:xlink="http://www.w3.org/1999/xlink" version="1.1" x="0px" y="0px" viewBox="0 0 100 125" enable-background="new 0 0 100 100" xml:space="preserve"><g><path fill="#000000" d="M34.572,7.39c-4.649,0-8.437,3.786-8.437,8.437c0,4.649,3.787,8.435,8.437,8.435   c4.653,0,8.438-3.785,8.438-8.435C43.011,11.176,39.226,7.39,34.572,7.39L34.572,7.39z"/></g><g><g><path fill="#000000" d="M68.027,33.111V27.93H34.572c-5.18,0-20.502-0.013-20.502,15.37v15.278h5.15V40.62    c0-1.416,1.151-2.565,2.563-2.565c1.421,0,2.564,1.149,2.564,2.565v53.944h7.661V66.391c0-1.423,1.15-2.566,2.562-2.566    c1.415,0,2.564,1.15,2.564,2.566v28.182h7.631V35.683c0-1.414,1.149-2.571,2.565-2.571C48.754,33.111,68.027,33.111,68.027,33.111    z"/></g></g><g><path fill="#000000" d="M68.025,38.698l-7.271,7.271l7.272,7.273l7.271-7.272L68.025,38.698L68.025,38.698z"/></g><g><path fill="#000000" d="M82.348,58.624H54.266c-2.199,0-3.801,1.789-3.558,3.976l3.115,27.996c0.243,2.188,2.241,3.977,4.442,3.977   h20.082c2.199,0,4.198-1.789,4.441-3.977L85.904,62.6C86.148,60.413,84.548,58.624,82.348,58.624z M81.434,66.623h-5.521   l0.236-3.999h5.729L81.434,66.623z M65.68,82.623l-0.236-4h5.763l-0.235,4H65.68z M70.732,86.623L70.5,90.57h-4.352l-0.233-3.947   H70.732z M56.516,78.623h4.928l0.236,4h-4.719L56.516,78.623z M71.677,70.623l-0.235,4h-6.232l-0.236-4H71.677z M64.736,66.623   L64.5,62.624h7.648l-0.236,3.999H64.736z M61.208,74.623H56.07l-0.444-4h5.347L61.208,74.623z M75.205,78.623h4.893l-0.445,4   h-4.684L75.205,78.623z M75.439,74.623l0.236-4h5.311l-0.443,4H75.439z M60.5,62.624l0.236,3.999H55.18l-0.445-3.999H60.5z    M57.799,90.152l-0.393-3.529h4.509l0.233,3.947h-3.883C58.104,90.57,57.816,90.312,57.799,90.152z M78.348,90.57H74.5l0.232-3.947   h4.475l-0.393,3.529C78.797,90.312,78.509,90.57,78.348,90.57z"/></g></svg>